<svg xmlns="http://www.w3.org/2000/svg" viewBox="0 0 323.75 322.81"><g id="Calque_2" data-name="Calque 2"><g id="Calque_1-2" data-name="Calque 1"><path d="M86.25,109.23c30.64-1.54,55.57-12.26,76.25-33.65,20.37,21.19,45.4,32,75,33.59,0,2.22.12,4.18,0,6.11-1.2,16.26-2.17,32.55-3.76,48.77-2.38,24.24-15.31,42.89-32.64,58.89a125.88,125.88,0,0,1-35,22.75c-1.86.82-4.65,1.15-6.41.37-24.29-10.91-44.15-27-58.08-50a76.1,76.1,0,0,1-10.51-32C89.21,146,87.87,128,86.25,109.23Zm65.19,62.82V198.7h21.91V172.11h26.36V150.4H173.05V124.19H151.33v26.69H125.06v21.17Z"/><path d="M0,48.38c1.58-7.74,2.06-15.91,5-23.12C12.24,7,32-2.77,52,.69,71.59,4.06,86,19.72,87,39.94c.44,8.71.35,17.81-1.67,26.22C80.22,87.38,60.26,99.31,36.83,96.39,17.29,94,1.88,76.5,1.32,56.12c-.07-2.49,0-5,0-7.48Zm76.72-4.57C68.29,40.34,61,37.3,53.64,34.37a5.9,5.9,0,0,0-3.23-.18C38.73,36.62,27,39,15.41,41.75a5.34,5.34,0,0,0-3.3,3.67,67.19,67.19,0,0,0,.05,11.95C13.38,73.12,25.43,84.9,41.43,86.14c16.54,1.29,30.92-8.72,34-24.36C76.66,55.67,76.38,49.26,76.72,43.81Z"/><path d="M323.56,49.75c1.15,13.65-2.7,26.7-14.18,36.61C295.89,98,280.24,100,264.06,93.69S239,74.69,237.91,57.4c-.55-8.7-.44-17.81,1.55-26.23,5-21.12,24.9-33.39,47.78-30.67C307.37,2.89,323,20.36,323.55,41.13,323.61,43.63,323.56,46.12,323.56,49.75Zm-75.12-7c0,4.3-.07,8.45,0,12.6.33,16.18,12,28.77,28.44,30.7s31.51-8,35-23.72c1.14-5.11.63-10.58,1.06-15.87.25-3.06-.91-4.37-3.95-5-4.19-.9-8.74-1.64-12.26-3.85-5.94-3.72-11.28-3.17-17.66-1.34C269.23,39.06,259,40.58,248.44,42.75Z"/><path d="M0,274.12c1.58-7.73,2.06-15.9,5-23.11,7.36-18.36,26.75-27.87,47.57-24.49,18.8,3,33.48,19.22,34.45,39.16.43,8.88.33,18.16-1.78,26.71-5.1,20.66-25.5,32.84-47.88,29.88-20.06-2.66-35.43-19.89-36-40.4-.07-2.49,0-5,0-7.48Zm12.08,3c0,1.83-.11,3.67,0,5.49,1.19,16.37,13.11,28,29.82,29.19s30.72-9.05,33.78-25.23c.89-4.67.42-9.59.77-14.39.21-3-.72-4.11-3.83-5-6.19-1.72-12.08-4.45-18.17-6.56a10,10,0,0,0-5-.36c-9.57,2-19.06,4.46-28.67,6.26C12,268.2,11.92,267.93,12.08,277.12Z"/><path d="M323.53,275.43c.93,11.28-1.55,22.39-9.44,31.9A43.73,43.73,0,0,1,267,320.66a41.42,41.42,0,0,1-29.22-37.77,114.13,114.13,0,0,1,.57-21.4c2.93-22.07,22.24-36.82,45.64-35.41,21.85,1.32,38.79,18.49,39.5,40.07C323.61,269,323.53,271.81,323.53,275.43Zm-75.1-6.54c0,3.67-.05,7.8,0,11.94.26,15.73,11.72,28.86,26.7,30.66,18.09,2.18,32.92-6.89,36.65-23.19,1.31-5.73.93-11.89.94-17.85,0-1-1.79-2.42-3-2.92-6.29-2.51-12.65-4.82-19-7.1a7,7,0,0,0-3.66-.51C274.42,262.77,261.86,265.75,248.43,268.89Z"/><path d="M100.12,24.17c-1.49-3.24-2.79-6.09-4.09-8.93C130.49-3.67,190-6.36,233.75,17.14c-1.43,2.89-2.87,5.81-4.51,9.16C186.66,6.53,143.79,5.79,100.12,24.17Z"/><path d="M224.68,298.47c1.15,2.54,2.12,4.63,3,6.74.38.88.69,1.79,1,2.66-37.19,19.1-92.81,19.95-132.77.06l4.14-9.4a153.39,153.39,0,0,0,62,13.32A151.75,151.75,0,0,0,224.68,298.47Z"/><path d="M302.67,106.35l9.95-3.85c14.69,39.38,14.68,78.27,0,117.83l-9.95-3.86C316.25,179.79,316.33,143.2,302.67,106.35Z"/><path d="M12.25,102.42l9.92,3.93C9,141.81,8.52,177.32,21,213.28L11,217C-2.43,178.47-2,140.72,12.25,102.42Z"/><path d="M29,47.73c1.47,2,3.83,3.93,4.21,6.16A4.37,4.37,0,0,1,28,59c-2-.38-4.85-3.05-5-4.86-.14-2,2.36-4.23,3.7-6.36Z"/><path d="M66.38,55c-2,1.43-3.92,3.77-6.11,4.09a4.27,4.27,0,0,1-5-5.21c.46-2,3-4.81,4.79-4.95,2-.14,4.15,2.34,6.25,3.68Z"/><path d="M298.05,47.79c1.37,2.12,3.89,4.31,3.77,6.33-.11,1.81-2.93,4.5-4.94,4.9a4.36,4.36,0,0,1-5.21-5.08c.36-2.23,2.7-4.15,4.16-6.2Z"/><path d="M270.54,55.29c-2.1,1.32-4.13,3.57-6.32,3.74a4.27,4.27,0,0,1-4.66-5.5c.58-2,3.29-4.63,5.05-4.64,2,0,4,2.6,6,4.07C270.59,53.74,270.57,54.52,270.54,55.29Z"/><path d="M34.1,281.08c-2.14,1.29-4.38,3.71-6.38,3.52-1.82-.17-4.44-3-4.78-5a4.29,4.29,0,0,1,5.19-5c2.22.43,4.07,2.73,6.09,4.19Z"/><path d="M66.4,280.61c-2,1.45-4,4-6,4-1.79,0-4.52-2.61-5.09-4.57a4.18,4.18,0,0,1,4.61-5.47c2.21.21,4.24,2.31,6.35,3.57Z"/><path d="M297.92,273.56c1.42,2.05,3.74,4,4,6.19a4.35,4.35,0,0,1-5.3,5c-2-.44-4.73-3.1-4.84-4.91-.12-2,2.38-4.15,3.74-6.23Z"/><path d="M258.54,278.24c2.1-1.29,4.09-3.41,6.3-3.66a4.18,4.18,0,0,1,4.69,5.4c-.54,2-3.24,4.59-5,4.64-2,.05-4-2.51-6-3.93C258.49,279.87,258.52,279.05,258.54,278.24Z"/></g></g></svg>